<?xml version="1.0" encoding="utf-8"?>
<!-- Generator: Adobe Illustrator 12.0.1, SVG Export Plug-In . SVG Version: 6.00 Build 51448)  -->
<!DOCTYPE svg PUBLIC "-//W3C//DTD SVG 1.1//EN" "http://www.w3.org/Graphics/SVG/1.1/DTD/svg11.dtd" [
	<!ENTITY ns_svg "http://www.w3.org/2000/svg">
	<!ENTITY ns_xlink "http://www.w3.org/1999/xlink">
]>
<svg  version="1.1" id="Layer_1" xmlns="&ns_svg;" xmlns:xlink="&ns_xlink;" width="160" height="120" viewBox="0 0 160 120"
	 overflow="visible" enable-background="new 0 0 160 120" xml:space="preserve">

	<path stroke="#000000" fill="#000000" d="M160,108.1c0,6.5-7.1,11.9-15.8,11.9H15.8C7.1,120,0,114.7,0,108.1V11.9C0,5.3,7.1,0,15.8,0h128.4 c8.7,0,15.8,5.3,15.8,11.9V108.1L160,108.1z"/>
	<path stroke="#000000" fill="#FFFFFF" d="M80,36.8c-24.9,0-45.6,24.8-45.6,24.8S55.1,86.5,80,86.5c24.9,0,45.6-25,45.6-25S104.9,36.8,80,36.8z M80,79.1c-9.6,0-17.5-7.8-17.5-17.5c0-9.6,7.8-17.5,17.5-17.5c9.6,0,17.5,7.8,17.5,17.5C97.5,71.3,89.7,79.1,80,79.1z"/>
	<circle stroke="#000000" fill="#FFFFFF" cx="80" cy="61.7" r="7.9"/>

</svg>
