<?xml version="1.0" encoding="UTF-8" standalone="no"?>
<!-- Created with Inkscape (http://www.inkscape.org/) -->

<svg
   xmlns:dc="http://purl.org/dc/elements/1.1/"
   xmlns:cc="http://creativecommons.org/ns#"
   xmlns:rdf="http://www.w3.org/1999/02/22-rdf-syntax-ns#"
   xmlns:svg="http://www.w3.org/2000/svg"
   xmlns="http://www.w3.org/2000/svg"
   version="1.1"
   width="55"
   height="55"
   viewBox="0 0 55 55"
   id="svg2"
   style="fill:#eeeeee;stroke:#000000;stroke-width:3.5;stroke-linecap:round;stroke-linejoin:round">
  <metadata
     id="metadata46">
    <rdf:RDF>
      <cc:Work
         rdf:about="">
        <dc:format>image/svg+xml</dc:format>
        <dc:type
           rdf:resource="http://purl.org/dc/dcmitype/StillImage" />
        <dc:title></dc:title>
      </cc:Work>
    </rdf:RDF>
  </metadata>
  <defs
     id="defs44" />
  <g
     transform="translate(0.27941991,11.438698)"
     id="g3110"
     style="fill:#ffffff;fill-opacity:1;stroke:#ffffff;stroke-opacity:1">
    <path
       d="m 10.398791,-4.8405506 a 3.2899178,3.2899178 0 1 1 -0.02347,8.32e-5"
       id="path6"
       style="fill:#ffffff;fill-opacity:1;stroke:#ffffff;stroke-width:4.77647305;stroke-opacity:1" />
    <path
       d="m 44.04229,-4.8405506 a 3.2899178,3.2899178 0 1 1 -0.02347,8.46e-5"
       id="path50"
       style="fill:#ffffff;fill-opacity:1;stroke:#ffffff;stroke-width:4.77647305;stroke-opacity:1" />
    <path
       d="m 27.220444,-4.8405506 a 3.2899178,3.2899178 0 1 1 -0.02347,8.46e-5"
       id="path66"
       style="fill:#ffffff;fill-opacity:1;stroke:#ffffff;stroke-width:4.77647305;stroke-opacity:1" />
    <path
       d="m 10.398791,30.38332 a 3.2899178,3.2899178 0 1 1 -0.02347,8.4e-5"
       id="path6-5"
       style="fill:#ffffff;fill-opacity:1;stroke:#ffffff;stroke-width:4.77647305;stroke-opacity:1" />
    <path
       d="m 44.04229,30.38332 a 3.2899178,3.2899178 0 1 1 -0.02347,8.5e-5"
       id="path50-9"
       style="fill:#ffffff;fill-opacity:1;stroke:#ffffff;stroke-width:4.77647305;stroke-opacity:1" />
    <path
       d="m 27.220444,30.38332 a 3.2899178,3.2899178 0 1 1 -0.02347,8.5e-5"
       id="path66-7"
       style="fill:#ffffff;fill-opacity:1;stroke:#ffffff;stroke-width:4.77647305;stroke-opacity:1" />
    <path
       d="m 10.398791,12.771383 a 3.2899178,3.2899178 0 1 1 -0.02347,8.3e-5"
       id="path6-9"
       style="fill:#ffffff;fill-opacity:1;stroke:#ffffff;stroke-width:4.77647305;stroke-opacity:1" />
    <path
       d="m 44.04229,12.771383 a 3.2899178,3.2899178 0 1 1 -0.02347,8.4e-5"
       id="path50-6"
       style="fill:#ffffff;fill-opacity:1;stroke:#ffffff;stroke-width:4.77647305;stroke-opacity:1" />
    <path
       d="m 27.220444,12.771383 a 3.2899178,3.2899178 0 1 1 -0.02347,8.4e-5"
       id="path66-5"
       style="fill:#ffffff;fill-opacity:1;stroke:#ffffff;stroke-width:4.77647305;stroke-opacity:1" />
  </g>
</svg>
