<?xml version="1.0" encoding="UTF-8" standalone="no"?>
<svg
   xmlns:dc="http://purl.org/dc/elements/1.1/"
   xmlns:cc="http://creativecommons.org/ns#"
   xmlns:rdf="http://www.w3.org/1999/02/22-rdf-syntax-ns#"
   xmlns:svg="http://www.w3.org/2000/svg"
   xmlns="http://www.w3.org/2000/svg"
   id="svg4208"
   y="0px"
   xml:space="preserve"
   x="0px"
   width="55px"
   viewBox="0 0 55 55"
   version="1.1"
   height="55px"
   enable-background="new 0 0 55 55"><metadata
     id="metadata4227"><rdf:RDF><cc:Work
         rdf:about=""><dc:format>image/svg+xml</dc:format><dc:type
           rdf:resource="http://purl.org/dc/dcmitype/StillImage" /><dc:title></dc:title></cc:Work></rdf:RDF></metadata><defs
     id="defs4225" /><g
     style="display:block"
     transform="matrix(0.82758621,0,0,0.82758621,3.4051724,11.670345)"
     id="record-photo"
     display="block"><g
       style="display:inline"
       id="g4211"
       display="inline"><polygon
         style="fill:#ffffff;stroke:#010101;stroke-width:3.5;stroke-linejoin:round"
         id="polygon4213"
         points="8.75,12.438 8.75,16.339 5,16.339 5,42.588 50,42.588 50,16.339 17.468,16.339 17.468,12.438 " /><path
         style="fill:#ffffff;stroke:#010101;stroke-width:3.5;stroke-linejoin:round"
         id="path4215"
         d="m 20.364,30.209 c 0,3.94 3.197,7.137 7.138,7.137 3.937,0 7.135,-3.197 7.135,-7.137 0,-3.937 -3.198,-7.141 -7.135,-7.141 -3.94,0 -7.138,3.205 -7.138,7.141 z" /><rect
         style="fill:#010101"
         id="rect4217"
         y="20.521999"
         x="39.146999"
         width="6.7480001"
         height="4.5019999" /><rect
         style="fill:#010101"
         id="rect4219"
         y="14.625"
         x="15.688"
         width="3.438"
         height="3.438" /><rect
         style="fill:#010101"
         id="rect4221"
         y="14.625"
         x="7.0619998"
         width="3.438"
         height="3.438" /></g></g><g
     id="g4897"><polygon
       style="fill:#ffffff;fill-opacity:1;stroke:#ffffff;stroke-linejoin:round;stroke-opacity:1"
       points="12.183,32.074 7.513,23.012 21.07,27.354 "
       id="polygon4308"
       transform="matrix(-0.87626639,0,0,0.87626639,49.690356,-8.0913138)" /><path
       style="fill:none;stroke:#ffffff;stroke-width:3.06693244;stroke-linecap:round;stroke-opacity:1"
       d="m 37.46644,16.656202 c 0,-6.498392 -5.266361,-11.764753 -11.764753,-11.764753 -6.498391,0 -11.765629,5.267237 -11.765629,11.764753"
       id="path4310" /></g></svg>