<?xml version="1.0" encoding="utf-8"?>
<!-- Generator: Adobe Illustrator 13.0.0, SVG Export Plug-In . SVG Version: 6.00 Build 14948)  -->
<!DOCTYPE svg PUBLIC "-//W3C//DTD SVG 1.1//EN" "http://www.w3.org/Graphics/SVG/1.1/DTD/svg11.dtd">
<svg version="1.1" id="Layer_1" xmlns="http://www.w3.org/2000/svg" xmlns:xlink="http://www.w3.org/1999/xlink" x="0px" y="0px"
	 width="48.5px" height="48.5px" viewBox="0 0 48.5 48.5" enable-background="new 0 0 48.5 48.5" xml:space="preserve">

<g>
	<rect x="1.75" y="1.75" fill="#808384" stroke="#FFFFFF" stroke-width="3.5" width="45" height="45"/>
	<g>
				<path fill="#000000" d="M23.7,32.6c-0.7,1.8-0.9,2.6-0.9,3.1c0,0.4,0.2,0.7,0.6,0.7c1-0.1,3.5-2.7,3.7-3.1c0.1-0.2,0.3-0.2,0.4,0
					l0.5,0.5c0.2,0.2,0.3,0.3,0.1,0.5c-0.3,0.4-3.6,5-8.9,5c-1,0-1.4-0.6-1.4-1.3c0-1,0.8-3.2,2.7-8.5l1.3-3.7
					c0.5-1.3,0.8-2.2,0.8-2.8c0-0.4-0.2-0.6-0.6-0.6c-0.8,0-3,2.5-3.6,3.3c-0.2,0.2-0.4,0.2-0.6,0l-0.5-0.4
					c-0.2-0.1-0.3-0.2-0.2-0.4c0.3-0.3,4.6-5.9,8.8-5.9c1.2,0,1.7,0.6,1.7,1.5s-0.6,2.7-1.4,5L23.7,32.6z M24.5,10.4
					c0-1.3,1.2-2.6,2.7-2.6c1.9,0,2.9,1.2,2.9,2.4c0,1.1-1.1,2.8-2.8,2.8C25.4,13,24.5,11.6,24.5,10.4z"/>
	</g>
</g>
</svg>
