<?xml version="1.0" ?><!DOCTYPE svg  PUBLIC '-//W3C//DTD SVG 1.1//EN'  'http://www.w3.org/Graphics/SVG/1.1/DTD/svg11.dtd' [
	<!ENTITY stroke_color "#010101">
	<!ENTITY fill_color "#CCCCCC">
]><svg enable-background="new 0 0 123.5 123.5" height="123.5px" version="1.1" viewBox="0 0 123.5 123.5" width="123.5px" x="0px" xml:space="preserve" xmlns="http://www.w3.org/2000/svg" xmlns:xlink="http://www.w3.org/1999/xlink" y="0px"><g display="block" id="object-audio_1_">
	<rect fill="&fill_color;" height="120" stroke="&stroke_color;" stroke-width="3.5" width="120" x="1.75" y="1.75"/>
	<g>
		<path d="    M13.625,104.216c1.186-0.999,2.513-2.458,4.421-2.242c2.045,0.408,3.177,2.035,4.639,3.133c1.025,0.945,2.734,1.868,4.261,1.1    c2.358-1.07,3.49-3.422,6.083-4.194c1.918-0.391,3.319,1.063,4.505,2.062c1.197,1.034,2.452,2.42,4.365,2.435    c2.362-0.416,3.584-2.332,5.291-3.545c1.016-0.854,2.694-1.43,4.011-0.651c2.224,1.116,3.369,7.95,5.89,9.341    c1.996,0.771,4.659-7.438,4.659-7.438s2.514-7.895,4.422-7.497c2.045,0.755,3.177,7.29,4.639,8.388    c1.025,0.945,2.733,1.868,4.262,1.1c2.356-1.07,3.488-3.422,6.082-4.194c1.918-0.391,3.319,1.063,4.507,2.062    c1.196,1.034,2.452,2.42,4.363,2.435c2.362-0.416,3.585-2.332,5.291-3.545c1.016-0.854,2.694-1.43,4.012-0.651    c2.224,1.116,3.369,3.354,5.89,4.107c1.995,0.418,3.442-1.188,4.658-2.204" fill="none" id="path152_2_" stroke="#FFFFFF" stroke-linecap="round" stroke-linejoin="round" stroke-width="2.25"/>
	</g>
	<rect fill="#EEEEEE" height="81" width="108" x="7.75" y="7.75"/>
</g></svg>