<?xml version="1.0" encoding="utf-8"?>
<!DOCTYPE svg PUBLIC "-//W3C//DTD SVG 1.1//EN" "http://www.w3.org/Graphics/SVG/1.1/DTD/svg11.dtd" [
	<!ENTITY ns_svg "http://www.w3.org/2000/svg">
	<!ENTITY ns_xlink "http://www.w3.org/1999/xlink">
]>
<svg version="1.1" xmlns="&ns_svg;" xmlns:xlink="&ns_xlink;" width="640" height="480" viewBox="0 0 640 480" overflow="visible" enable-background="new 0 0 640 480" xml:space="preserve">
	<path
   d="M 330.5,30.1 C 389.4,30.1 439.8,51.2 481.8,93.3 C 523.7,135.4 544.7,186.4 544.7,246.1 C 544.7,305.5 523.7,356.3 481.8,398.6 C 439.9,440.9 389.5,462 330.5,462 C 271.1,462 220.3,440.9 178,398.6 C 135.6,356.3 114.5,305.4 114.5,246 C 114.5,186.3 135.6,135.4 177.9,93.2 C 220.2,51.1 271.1,30.1 330.5,30.1 z M 329.5,449.2 C 385.3,449.2 433.1,429.4 472.9,389.7 C 512.7,350 532.5,302.1 532.5,246 C 532.5,190.2 512.6,142.4 472.9,102.6 C 433.2,62.8 385.4,43 329.5,43 C 273.5,43 225.7,62.9 186,102.6 C 146.4,142.4 126.6,190.2 126.6,246 C 126.6,302.1 146.4,350 186.1,389.7 C 225.7,429.4 273.6,449.2 329.5,449.2 z "
   id="path2227"
   style="fill:#000000;stroke:#000000" />
	<path
   d="M 232.2,219.8 C 240.6,219.8 247.8,222.8 253.8,228.8 C 259.8,234.8 262.8,242.1 262.8,250.6 C 262.8,259.1 259.8,266.3 253.8,272.3 C 247.8,278.3 240.6,281.3 232.2,281.3 C 223.7,281.3 216.5,278.3 210.4,272.3 C 204.4,266.3 201.3,259 201.3,250.6 C 201.3,242.1 204.3,234.8 210.4,228.8 C 216.5,222.8 223.7,219.8 232.2,219.8 z "
   id="path2229"
   style="fill:#000000;stroke:#000000" />
	<path
   d="M 431.3,223.4 C 439.7,223.4 446.9,226.4 452.9,232.4 C 458.9,238.4 461.9,245.7 461.9,254.2 C 461.9,262.7 458.9,269.9 452.9,275.9 C 446.9,281.9 439.7,284.9 431.3,284.9 C 422.8,284.9 415.6,281.9 409.6,275.9 C 403.6,269.9 400.5,262.6 400.5,254.2 C 400.5,245.7 403.5,238.4 409.6,232.4 C 415.6,226.4 422.8,223.4 431.3,223.4 z "
   id="path2231"
   style="fill:#000000;stroke:#000000" />
	<line
   x1="286.39999"
   y1="22"
   x2="365.20001"
   y2="22"
   id="line2233"
   style="fill:#ffffff;stroke:#000000;stroke-width:10" />
	<line
   x1="325.70001"
   y1="258.29999"
   x2="325.70001"
   y2="136.60001"
   id="line2235"
   style="fill:#ffffff;stroke:#000000;stroke-width:12" />
	<line
   x1="327.60001"
   y1="260.10001"
   x2="388.5"
   y2="360.29999"
   id="line2237"
   style="fill:#ffffff;stroke:#000000;stroke-width:12" />
</svg>
