<?xml version="1.0" encoding="utf-8"?>
<!-- Generator: Adobe Illustrator 13.0.0, SVG Export Plug-In . SVG Version: 6.00 Build 14948)  -->
<!DOCTYPE svg PUBLIC "-//W3C//DTD SVG 1.1//EN" "http://www.w3.org/Graphics/SVG/1.1/DTD/svg11.dtd">
<svg version="1.1" id="Layer_1" xmlns="http://www.w3.org/2000/svg" xmlns:xlink="http://www.w3.org/1999/xlink" x="0px" y="0px"
	 width="484" height="484" viewBox="0 0 484 484" enable-background="new 0 0 484 484" xml:space="preserve">

			<g>
			<path fill="#FFFFFF" d="M483.5,471.5c0,6.6-5.4,12-12,12h-459c-6.6,0-12-5.4-12-12v-459c0-6.6,5.4-12,12-12h459c6.6,0,12,5.4,12,12
				V471.5z"/>
			<path d="M243.9,32.4c58.9,0,109.3,21.1,151.3,63.2c41.9,42.1,62.9,93.1,62.9,152.8c0,59.4-21,110.2-62.9,152.5
				c-41.9,42.3-92.3,63.4-151.3,63.4c-59.4,0-110.2-21.1-152.5-63.4C49,358.5,27.9,307.7,27.9,248.2c0-59.7,21.1-110.6,63.4-152.8
				C133.6,53.4,184.5,32.4,243.9,32.4z M242.9,451.5c55.8,0,103.6-19.8,143.4-59.5c39.8-39.7,59.6-87.6,59.6-143.7
				c0-55.8-19.9-103.6-59.6-143.4C346.6,65,298.8,45.2,242.9,45.2c-56,0-103.8,19.9-143.5,59.6C59.8,144.6,40,192.5,40,248.2
				c0,56.1,19.8,104,59.5,143.7C139.1,431.7,187,451.5,242.9,451.5z"/>
			<path d="M145.6,222c8.4,0,15.6,3,21.6,9s9,13.3,9,21.8s-3,15.7-9,21.7s-13.2,9-21.6,9
				c-8.5,0-15.7-3-21.8-9c-6-6-9.1-13.3-9.1-21.7c0-8.5,3-15.8,9.1-21.8S137.1,222,145.6,222z"/>
			<path d="M344.7,225.6c8.4,0,15.6,3,21.6,9s9,13.3,9,21.8s-3,15.7-9,21.7s-13.2,9-21.6,9
				c-8.5,0-15.7-3-21.7-9s-9.1-13.3-9.1-21.7c0-8.5,3-15.8,9.1-21.8C329,228.6,336.2,225.6,344.7,225.6z"/>
			<line fill="#FFFFFF" stroke="#000000" stroke-width="12" stroke-linecap="round" x1="199.8" y1="24.2" x2="278.6" y2="24.2"/>
			<line fill="#FFFFFF" stroke="#000000" stroke-width="12" stroke-linecap="round" x1="239.1" y1="260.5" x2="239.1" y2="138.9"/>
			<line fill="#FFFFFF" stroke="#000000" stroke-width="12" stroke-linecap="round" x1="241" y1="262.3" x2="301.9" y2="362.5"/>
			</g>
</svg>
