<?xml version="1.0" encoding="utf-8"?>
<!-- Generator: Adobe Illustrator 13.0.0, SVG Export Plug-In . SVG Version: 6.00 Build 14948)  -->
<!DOCTYPE svg PUBLIC "-//W3C//DTD SVG 1.1//EN" "http://www.w3.org/Graphics/SVG/1.1/DTD/svg11.dtd">
<svg version="1.1" id="Layer_1" xmlns="http://www.w3.org/2000/svg" xmlns:xlink="http://www.w3.org/1999/xlink" x="0px" y="0px"
	 width="625" height="625" viewBox="0 0 625 625" enable-background="new 0 0 625 625" xml:space="preserve">

			<g>
			<path fill="#FFFFFF" d="M625,609.5c0,8.5-7,15.5-15.5,15.5H15.5C7,625,0,618,0,609.5V15.5C0,7,7,0,15.5,0h593.9
				C618,0,625,7,625,15.5V609.5z"/>
			<path d="M315,41.3c76.2,0,141.4,27.3,195.8,81.8c54.2,54.5,81.4,120.5,81.4,197.7c0,76.9-27.2,142.6-81.4,197.3
				c-54.2,54.7-119.4,82-195.8,82c-76.9,0-142.6-27.3-197.3-82c-54.9-54.9-82.2-120.6-82.2-197.6c0-77.3,27.3-143.1,82-197.7
				C172.2,68.5,238.1,41.3,315,41.3z M313.7,583.6c72.2,0,134.1-25.6,185.6-77s77.1-113.4,77.1-185.9c0-72.2-25.8-134.1-77.1-185.6
				C447.9,83.5,386,57.8,313.7,57.8c-72.5,0-134.3,25.8-185.7,77.1c-51.2,51.5-76.9,113.5-76.9,185.6c0,72.6,25.6,134.6,77,185.9
				C179.3,558,241.3,583.6,313.7,583.6z"/>
			<path d="M187.8,286.6c10.9,0,20.2,3.9,28,11.6c7.8,7.8,11.6,17.2,11.6,28.2s-3.9,20.3-11.6,28.1c-7.8,7.8-17.1,11.6-28,11.6
				c-11,0-20.3-3.9-28.2-11.6c-7.8-7.8-11.8-17.2-11.8-28.1c0-11,3.9-20.4,11.8-28.2C167.4,290.5,176.8,286.6,187.8,286.6z"/>
			<path d="M445.4,291.3c10.9,0,20.2,3.9,28,11.6c7.8,7.8,11.6,17.2,11.6,28.2s-3.9,20.3-11.6,28.1c-7.8,7.8-17.1,11.6-28,11.6
				c-11,0-20.3-3.9-28.1-11.6c-7.8-7.8-11.8-17.2-11.8-28.1c0-11,3.9-20.4,11.8-28.2C425.1,295.2,434.4,291.3,445.4,291.3z"/>
			<line fill="#FFFFFF" stroke="#000000" stroke-width="12" stroke-linecap="round" class="st0" x1="257.9" y1="30.7" x2="359.9" y2="30.7"/>
			<line fill="#FFFFFF" stroke="#000000" stroke-width="12" stroke-linecap="round" class="st0" x1="308.7" y1="336.4" x2="308.7" y2="179.1"/>
			<line fill="#FFFFFF" stroke="#000000" stroke-width="12" stroke-linecap="round" class="st0" x1="311.2" y1="338.8" x2="390" y2="468.4"/>
			</g>

</svg>
